<svg version="1.2" xmlns="http://www.w3.org/2000/svg" viewBox="0 0 1440 246" width="1440" height="246"><defs><clipPath clipPathUnits="userSpaceOnUse" id="cp1"><path d="m24 12.84h212.77v228h-212.77z" /></clipPath><clipPath clipPathUnits="userSpaceOnUse" id="cp2"><path d="m33 12.84h194v115.16h-194z" /></clipPath><clipPath clipPathUnits="userSpaceOnUse" id="cp3"><path d="m23.77 73h109.23v167h-109.23z" /></clipPath><clipPath clipPathUnits="userSpaceOnUse" id="cp4"><path d="m127 73h109.77v167h-109.77z" /></clipPath></defs><style>.s0{fill:none;stroke:#000000;stroke-width:12.8}.s1{fill:#ffffff}.s2{fill:#1b1c1e}.s3{fill:#000000}</style><path class="s0" d="m939.1 188.8h476.2" /><path class="s1" d="m232.7 178.4c-0.2 3.7-3.3 8.3-6.8 10.4c-31.1 18.3-62 37-88.7 48.1c-5 2.1-9.3 1.6-13.8 0c-27.3-9.7-57.7-29.8-88.7-48.1c-3.6-2.1-6.7-6.7-6.9-10.4c-1.8-32.4-1.6-64.8-0.3-97.2c0.3-6.1 4.6-10.4 11.3-14.9c27.9-18.5 53.4-33.2 84.7-49.6c3.6-1.9 9.6-1.9 13.2 0c31.3 16.4 56.6 31.3 84.6 49.6c9.3 6.2 11.4 9.8 11.7 14.9q2.4 48.7-0.3 97.2z" /><g clip-path="url(#cp1)"><path class="s2" d="m230.5 81.3c0-1.1-0.2-2.1-0.5-3c-0.3-0.9-0.7-1.7-1.4-2.7c-1.5-1.9-4.1-4.2-8.7-7.2c-27.9-18.3-53.1-33.1-84.4-49.5c-1.3-0.7-3.4-1.1-5.4-1.1c-2.1 0-4.2 0.5-5.5 1.1c-31.2 16.4-56.6 31-84.4 49.5c-2.4 1.7-4.5 3.2-6.1 4.8c-1.6 1.5-2.7 3.1-3.3 4.7c-0.5 1-0.7 2.1-0.8 3.4c-0.6 15.9-1 31.8-1 47.6c0 16.5 0.4 32.9 1.3 49.3c0 0.6 0.2 1.4 0.5 2.2c0.3 0.8 0.8 1.6 1.3 2.4c1 1.6 2.5 3.1 3.8 3.9c15.6 9.2 30.9 18.8 45.8 27.2c14.8 8.5 29.1 15.9 42.5 20.7c2.2 0.8 4.3 1.2 6.3 1.2c1.8 0 3.7-0.3 5.7-1.2c26.4-11 57.4-29.6 88.4-47.9c1-0.6 2.1-1.6 3-2.7c0.9-1.1 1.7-2.4 2.1-3.6c0.3-0.8 0.5-1.6 0.5-2.2q1.5-25.7 1.5-51.4q0-22.7-1.2-45.5l2.5-0.1l2.5-0.1q1.1 22.8 1.1 45.7q0 25.9-1.4 51.7c-0.1 1.2-0.4 2.4-0.8 3.6q-0.7 1.8-1.8 3.5c-1.4 2.1-3.3 4.1-5.5 5.4c-31 18.3-62 37-89 48.2c-2.6 1.1-5.1 1.6-7.6 1.6c-2.8 0-5.4-0.6-8-1.5c-13.8-5-28.4-12.5-43.3-21c-15-8.6-30.3-18.2-45.8-27.3c-1.6-1-3.1-2.3-4.3-3.9c-1.3-1.5-2.3-3.2-3-5c-0.4-1.2-0.7-2.4-0.8-3.6c-0.9-16.5-1.3-33-1.3-49.6c0-15.9 0.4-31.9 1-47.8q0.1-2.8 1.1-5.1c0.7-1.6 1.6-3.1 2.7-4.4c2.2-2.7 5.2-5 8.7-7.3c27.9-18.7 53.4-33.3 84.8-49.8c2.3-1.2 5-1.7 7.8-1.7c2.7 0 5.4 0.5 7.7 1.7c31.4 16.5 56.8 31.3 84.9 49.8c3.6 2.3 6.2 4.3 8.1 6.3c2 2 3.3 4.1 3.9 6.2c0.5 1.4 0.7 2.8 0.8 4.3l-2.5 0.1z" /></g><path class="s1" d="m136.7 123.7c-3.6 1.9-9.6 1.9-13.2 0c-31.3-16.4-56.6-31.3-84.7-49.6c-3.2-2.1-3.2-5.6 0-7.8c28.1-18.3 53.4-33.2 84.7-49.6c3.6-1.9 9.6-1.9 13.2 0c31.3 16.4 56.6 31.3 84.6 49.6c3.2 2.2 3.2 5.7 0 7.8c-28 18.3-53.3 33.2-84.6 49.6z" /><g clip-path="url(#cp2)"><path class="s2" d="m137.8 125.9c-2.3 1.2-5 1.7-7.7 1.7c-2.8 0-5.5-0.5-7.8-1.7c-31.4-16.4-56.8-31.3-84.8-49.7c-1.1-0.7-2-1.6-2.6-2.6c-0.6-1-1-2.2-1-3.4c0-1.2 0.4-2.3 1-3.3c0.6-1.1 1.5-1.9 2.6-2.6c28-18.4 53.4-33.3 84.8-49.8c2.3-1.2 5-1.7 7.8-1.7c2.7 0 5.4 0.5 7.7 1.7c31.4 16.5 56.8 31.4 84.9 49.8q1.6 1 2.5 2.6c0.7 1 1 2.1 1 3.3c0 1.2-0.3 2.4-1 3.4c-0.6 1-1.5 1.9-2.5 2.6c-28.1 18.4-53.5 33.3-84.9 49.7l-1.1-2.2l-1.2-2.2c31.3-16.4 56.5-31.2 84.4-49.5c0.6-0.4 0.9-0.7 1.1-1c0.2-0.3 0.2-0.6 0.2-0.8c0-0.2 0-0.5-0.2-0.8c-0.2-0.3-0.5-0.6-1.1-1c-27.9-18.3-53.1-33.1-84.4-49.5c-1.3-0.7-3.4-1.1-5.4-1.1c-2.1 0-4.2 0.4-5.5 1.1c-31.2 16.4-56.4 31.2-84.4 49.5c-0.5 0.4-0.8 0.7-1 1c-0.2 0.3-0.3 0.6-0.3 0.8c0 0.2 0.1 0.5 0.3 0.8c0.2 0.3 0.5 0.6 1 1c28 18.3 53.2 33.1 84.4 49.5c1.3 0.7 3.4 1.1 5.5 1.1c2 0 4.1-0.4 5.4-1.1l1.2 2.2z" /></g><path class="s1" d="m129.3 232.1c-0.2 3.7-2.8 5.9-5.9 4.8c-27.2-9.9-57.7-29.8-88.7-48.1c-3.6-2.1-6.7-6.7-6.9-10.4q-2.7-48.5-0.3-97.2c0.2-3.7 2.9-6 6-4.9c27.2 9.9 57.7 29.8 88.7 48.1c3.5 2.1 6.6 6.8 6.8 10.5q2.7 48.5 0.3 97.2z" /><g clip-path="url(#cp3)"><path class="s2" d="m131.8 232.2c-0.1 1.5-0.5 2.9-1.2 4.1c-0.6 1.2-1.7 2.2-2.9 2.8c-0.9 0.4-1.8 0.6-2.8 0.6q-1.2 0-2.4-0.4c-13.8-5.1-28.3-12.6-43.3-21.1c-14.9-8.5-30.3-18.1-45.8-27.2c-1.7-1-3.1-2.3-4.3-3.9c-1.3-1.5-2.3-3.2-3-5c-0.4-1.2-0.7-2.4-0.8-3.6q-1.4-25.8-1.4-51.6q0-22.9 1.1-45.8v-0.1c0.1-1.4 0.5-2.8 1.2-4c0.7-1.2 1.7-2.2 3-2.8c0.8-0.4 1.7-0.6 2.7-0.6q1.2 0 2.4 0.4c13.8 5 28.4 12.5 43.3 21.1c15 8.5 30.4 18 45.8 27.2c1.7 1 3.1 2.3 4.4 3.8c1.2 1.5 2.2 3.3 2.9 5c0.4 1.2 0.7 2.4 0.8 3.7q1.4 25.7 1.4 51.5q0 22.9-1.1 45.9l-2.5-0.1l-2.5-0.1q1.2-22.9 1.2-45.7q0-25.6-1.5-51.3c0-0.6-0.2-1.3-0.5-2.1c-0.3-0.8-0.7-1.7-1.2-2.5c-1.1-1.6-2.6-3-3.9-3.8c-15.5-9.2-30.9-18.7-45.8-27.2c-14.8-8.5-29.1-15.8-42.5-20.7q-0.4-0.2-0.7-0.2q-0.3 0-0.6 0.2q-0.3 0.1-0.5 0.4c-0.4 0.4-0.7 1.1-0.8 2.2q-1.1 22.8-1.1 45.6q0 25.7 1.4 51.3c0 0.6 0.2 1.4 0.5 2.2c0.3 0.8 0.8 1.6 1.3 2.4c1 1.6 2.5 3.1 3.8 3.9c15.6 9.2 31 18.7 45.8 27.2c14.8 8.4 29.1 15.8 42.5 20.7q0.5 0.1 0.7 0.1q0.4 0 0.6-0.1q0.3-0.1 0.6-0.4c0.3-0.4 0.7-1.2 0.7-2.2l2.5 0.1z" /></g><path class="s1" d="m131.5 134.9c0.2-3.7 3.3-8.4 6.9-10.5c31-18.3 61.5-38.2 88.6-48.1c3.2-1.1 5.8 1.2 6 4.9q2.4 48.7-0.3 97.2c-0.2 3.7-3.3 8.3-6.8 10.4c-31.1 18.3-61.6 38.2-88.7 48.1c-3.1 1.1-5.8-1.1-6-4.8q-2.4-48.7 0.3-97.2z" /><g clip-path="url(#cp4)"><path class="s2" d="m133.7 232c0 0.8 0.2 1.4 0.5 1.8c0.2 0.4 0.5 0.7 0.8 0.8q0.2 0.1 0.6 0.1q0.3 0 0.7-0.1c13.4-4.9 27.7-12.3 42.5-20.7c14.9-8.5 30.2-18 45.8-27.2c1-0.6 2.1-1.6 3-2.7c0.9-1.1 1.7-2.4 2.1-3.6c0.3-0.8 0.5-1.6 0.5-2.2q1.4-25.6 1.4-51.3q0-22.8-1.1-45.6c0-0.8-0.2-1.4-0.5-1.8c-0.2-0.5-0.5-0.7-0.8-0.8q-0.2-0.2-0.6-0.2q-0.3 0-0.7 0.2c-13.4 4.9-27.7 12.2-42.5 20.7c-14.9 8.5-30.2 18-45.8 27.2c-1 0.6-2.1 1.5-3 2.7c-0.9 1.1-1.6 2.4-2.1 3.6c-0.3 0.8-0.5 1.5-0.5 2.1q-1.4 25.7-1.4 51.3q0 22.8 1.1 45.7l-5 0.2q-1.1-23-1.1-45.9q0-25.8 1.4-51.5c0.1-1.3 0.4-2.5 0.8-3.7q0.7-1.8 1.8-3.4c1.4-2.2 3.3-4.1 5.5-5.4c15.5-9.2 30.8-18.7 45.8-27.2c15-8.6 29.5-16.1 43.3-21.1q1.2-0.4 2.4-0.4c1 0 1.9 0.2 2.8 0.6c0.8 0.4 1.5 0.9 2.1 1.6c1.2 1.4 1.9 3.3 2 5.2v0.1q1.1 22.9 1.1 45.8q0 25.8-1.4 51.6c-0.1 1.2-0.4 2.4-0.8 3.6q-0.7 1.8-1.8 3.5c-1.4 2.1-3.3 4.1-5.5 5.4c-15.5 9.1-30.8 18.7-45.8 27.2c-14.9 8.5-29.5 16-43.3 21.1q-1.2 0.4-2.4 0.4c-1 0-1.9-0.2-2.8-0.6c-0.8-0.4-1.5-1-2.1-1.7c-1.2-1.4-1.9-3.2-2-5.2l2.5-0.1z" /></g><path class="s2" d="m102.5 70.2c0 7.2-5.8 12.9-13 12.9c-7.1 0-12.9-5.7-12.9-12.9c0-7.1 5.8-12.9 12.9-12.9c7.2 0 13 5.8 13 12.9z" /><path class="s2" d="m143 70.2c0 7.2-5.8 12.9-12.9 12.9c-7.2 0-13-5.7-13-12.9c0-7.1 5.8-12.9 13-12.9c7.1 0 12.9 5.8 12.9 12.9z" /><path class="s2" d="m183.6 70.2c0 7.2-5.8 12.9-13 12.9c-7.1 0-12.9-5.7-12.9-12.9c0-7.1 5.8-12.9 12.9-12.9c7.2 0 13 5.8 13 12.9z" /><path class="s2" d="m65.9 141.9c0 7.1-5.8 12.9-13 12.9c-7.1 0-12.9-5.8-12.9-12.9c0-7.2 5.8-13 12.9-13c7.2 0 13 5.8 13 13z" /><path class="s2" d="m116.9 171.4c0 7.2-5.8 12.9-13 12.9c-7.1 0-12.9-5.7-12.9-12.9c0-7.1 5.8-12.9 12.9-12.9c7.2 0 13 5.8 13 12.9z" /><path class="s2" d="m220.6 114.1c0 7.2-5.8 13-13 13c-7.1 0-12.9-5.8-12.9-13c0-7.1 5.8-12.9 12.9-12.9c7.2 0 13 5.8 13 12.9z" /><path class="s2" d="m169.6 143.7c0 7.1-5.8 12.9-13 12.9c-7.2 0-13-5.8-13-12.9c0-7.2 5.8-12.9 13-12.9c7.2 0 13 5.7 13 12.9z" /><path class="s2" d="m220.6 169.6c0 7.1-5.8 12.9-13 12.9c-7.1 0-12.9-5.8-12.9-12.9c0-7.2 5.8-13 12.9-13c7.2 0 13 5.8 13 13z" /><path class="s2" d="m169.6 199.1c0 7.2-5.8 13-13 13c-7.2 0-13-5.8-13-13c0-7.1 5.8-12.9 13-12.9c7.2 0 13 5.8 13 12.9z" /><path fill-rule="evenodd" class="s3" d="m319.4 126.4q6.2 2.2 9.8 6.8q3.5 4.6 3.5 11.1q0 9.5-7.7 14.7q-7.6 5.1-22.1 5.1h-39.1v-72.3h37q13.9 0 21.1 5.1q7.3 5.1 7.3 13.8q0 5.2-2.6 9.3q-2.5 4-7.2 6.4zm-35.3-19.8v13.9h14q10.4 0 10.4-7q0-6.9-10.4-6.9zm17.2 42.8q10.8 0 10.8-7.4q0-7.3-10.8-7.3h-17.2v14.7z" /><path fill-rule="evenodd" class="s3" d="m383.9 144.9h-11.1v19.2h-20.5v-72.3h33.1q9.8 0 17 3.2q7.3 3.3 11.2 9.3q3.9 6.1 3.9 14.3q0 7.8-3.6 13.7q-3.7 5.8-10.5 9.1l15.6 22.7h-21.9zm12.9-26.3q0-5.1-3.2-7.9q-3.2-2.8-9.5-2.8h-11.4v21.2h11.4q6.3 0 9.5-2.7q3.2-2.7 3.2-7.8z" /><path fill-rule="evenodd" class="s3" d="m486.3 150.1h-30.6l-5.7 14h-20.9l31.9-72.3h20.2l32.1 72.3h-21.3zm-6-15l-9.3-23.2l-9.3 23.2z" /><path class="s3" d="m596.9 91.8v72.3h-16.9l-31.9-38.5v38.5h-20.1v-72.3h16.9l31.9 38.5v-38.5z" /><path fill-rule="evenodd" class="s3" d="m620.3 91.8h34.3q11.8 0 21 4.4q9.2 4.5 14.3 12.6q5.1 8.2 5.1 19.2q0 10.9-5.1 19.1q-5.1 8.2-14.3 12.6q-9.2 4.4-21 4.4h-34.3zm33.4 56.1q9.3 0 15-5.3q5.6-5.3 5.6-14.6q0-9.3-5.6-14.5q-5.7-5.3-15-5.3h-12.9v39.7z" /><path fill-rule="evenodd" class="s3" d="m751.2 165.6q-11.5 0-20.6-4.9q-9.2-4.8-14.4-13.4q-5.2-8.6-5.2-19.3q0-10.8 5.2-19.4q5.2-8.6 14.4-13.4q9.1-4.9 20.6-4.9q11.5 0 20.6 4.9q9.2 4.8 14.4 13.4q5.2 8.6 5.2 19.4q0 10.7-5.2 19.3q-5.2 8.6-14.4 13.4q-9.1 4.9-20.6 4.9zm0-17q5.5 0 9.9-2.5q4.5-2.6 7.1-7.3q2.6-4.7 2.6-10.8q0-6.1-2.6-10.8q-2.6-4.8-7.1-7.3q-4.4-2.6-9.9-2.6q-5.5 0-9.9 2.6q-4.5 2.5-7.1 7.3q-2.5 4.7-2.5 10.8q0 6.1 2.5 10.8q2.6 4.7 7.1 7.3q4.4 2.5 9.9 2.5z" /><path class="s3" d="m880 91.8v72.3h-16.8l-32-38.5v38.5h-20v-72.3h16.8l32 38.5v-38.5z" /><path class="s3" d="m1007.9 164.1l-0.2-38.3l-18.6 31.2h-9.1l-18.5-30.2v37.3h-19v-72.3h16.9l25.4 41.7l24.8-41.7h16.9l0.2 72.3z" /><path fill-rule="evenodd" class="s3" d="m1098.6 150.1h-30.6l-5.6 14h-20.9l31.9-72.3h20.2l32 72.3h-21.3zm-6-15l-9.3-23.2l-9.3 23.2z" /><path fill-rule="evenodd" class="s3" d="m1172 144.9h-11.1v19.2h-20.5v-72.3h33.1q9.8 0 17 3.2q7.3 3.3 11.2 9.3q3.9 6.1 3.9 14.3q0 7.8-3.6 13.7q-3.7 5.8-10.5 9.1l15.6 22.7h-21.9zm12.9-26.3q0-5.1-3.2-7.9q-3.2-2.8-9.5-2.8h-11.4v21.2h11.4q6.3 0 9.5-2.7q3.2-2.7 3.2-7.8z" /><path class="s3" d="m1241.3 108h-22.3v-16.2h64.9v16.2h-22.1v56.1h-20.5z" /><path class="s3" d="m1300.5 91.8h20.5v72.3h-20.5z" /><path class="s3" d="m1413.4 91.8v72.3h-16.8l-32-38.5v38.5h-20.1v-72.3h16.9l31.9 38.5v-38.5z" /></svg>